<svg width="36" height="36" viewBox="0 0 36 36" fill="none" xmlns="http://www.w3.org/2000/svg">
<rect width="36" height="36" fill="#DB3E15"/>
<path d="M12.5599 5C10.7811 5 9.16807 5.71908 8 6.87917L9.34729 8.21727C10.1703 7.39989 11.3063 6.89334 12.5599 6.89334C15.0655 6.89334 17.1047 8.91775 17.1047 11.4071C17.1047 13.8964 15.0664 15.9208 12.5599 15.9208C11.3089 15.9208 10.1748 15.416 9.35264 14.6013L8.00446 15.9394C9.17253 17.0968 10.7829 17.8142 12.559 17.8142C16.1159 17.8142 19.0102 14.9396 19.0102 11.4071C19.0102 7.87455 16.1168 5 12.5599 5Z" fill="white" style="mix-blend-mode:difference"/>
<path d="M17.8858 21.9815C16.7231 20.2945 14.7695 19.1858 12.5599 19.1858C10.7811 19.1858 9.16807 19.9049 8 21.065L9.34729 22.4031C10.1703 21.5857 11.3063 21.0791 12.5599 21.0791C15.0655 21.0791 17.1047 23.1035 17.1047 25.5929C17.1047 28.0822 15.0664 30.1066 12.5599 30.1066C11.3089 30.1066 10.1748 29.6018 9.35264 28.7871L8.00446 30.1252C9.17253 31.2826 10.7829 31.9999 12.559 31.9999C16.1159 31.9999 19.0102 29.1254 19.0102 25.5929C19.0102 24.2548 18.5947 23.0106 17.8849 21.9815" fill="white" style="mix-blend-mode:difference"/>
<path d="M24.9299 12.0933C26.7088 12.0933 28.3218 12.8123 29.4898 13.9724L28.1425 15.3105C27.3195 14.4931 26.1836 13.9866 24.9299 13.9866C22.4243 13.9866 20.3851 16.011 20.3851 18.5003C20.3851 20.9888 22.4235 23.0141 24.9299 23.0141C26.1809 23.0141 27.3151 22.5093 28.1372 21.6946L29.4845 23.0327C28.3164 24.1901 26.7061 24.9074 24.9299 24.9074C21.3731 24.9074 18.4788 22.0329 18.4788 18.5003C18.4788 14.9678 21.3731 12.0933 24.9299 12.0933Z" fill="white" style="mix-blend-mode:difference"/>
</svg>
