<svg width="30" height="30" viewBox="0 0 30 30" fill="none" xmlns="http://www.w3.org/2000/svg">
<rect width="30" height="30" fill="#712FDC"/>
<path d="M11.8305 7.14355C10.7404 7.14355 9.75194 7.58422 9.03613 8.29514L9.86177 9.11514C10.3661 8.61424 11.0623 8.30382 11.8305 8.30382C13.366 8.30382 14.6156 9.54441 14.6156 11.0699C14.6156 12.5954 13.3665 13.836 11.8305 13.836C11.0639 13.836 10.3689 13.5266 9.86505 13.0274L9.03886 13.8474C9.75468 14.5567 10.7415 14.9962 11.83 14.9962C14.0096 14.9962 15.7833 13.2347 15.7833 11.0699C15.7833 8.90512 14.0102 7.14355 11.8305 7.14355Z" fill="white" style="mix-blend-mode:difference"/>
<path d="M15.0943 17.5502C14.3818 16.5164 13.1846 15.8369 11.8305 15.8369C10.7404 15.8369 9.75194 16.2776 9.03613 16.9885L9.86177 17.8085C10.3661 17.3076 11.0623 16.9972 11.8305 16.9972C13.366 16.9972 14.6156 18.2378 14.6156 19.7633C14.6156 21.2888 13.3665 22.5293 11.8305 22.5293C11.0639 22.5293 10.3689 22.22 9.86505 21.7207L9.03886 22.5407C9.75468 23.25 10.7415 23.6896 11.83 23.6896C14.0096 23.6896 15.7833 21.928 15.7833 19.7633C15.7833 18.9433 15.5287 18.1808 15.0937 17.5502" fill="white" style="mix-blend-mode:difference"/>
<path d="M19.4109 11.4905C20.501 11.4905 21.4895 11.9311 22.2053 12.6421L21.3796 13.4621C20.8753 12.9612 20.1791 12.6507 19.4109 12.6507C17.8754 12.6507 16.6258 13.8913 16.6258 15.4168C16.6258 16.9418 17.8749 18.1829 19.4109 18.1829C20.1775 18.1829 20.8725 17.8736 21.3763 17.3743L22.202 18.1943C21.4862 18.9036 20.4993 19.3432 19.4109 19.3432C17.2312 19.3432 15.4575 17.5816 15.4575 15.4168C15.4575 13.252 17.2312 11.4905 19.4109 11.4905Z" fill="white" style="mix-blend-mode:difference"/>
</svg>
