<?xml version="1.0" encoding="UTF-8"?>
<svg version="1.1" xmlns="http://www.w3.org/2000/svg" width="242" height="248">
<path d="M0 0 C2.875 2.3125 2.875 2.3125 3.875 5.3125 C3.545 5.9725 3.215 6.6325 2.875 7.3125 C2.215 7.3125 1.555 7.3125 0.875 7.3125 C0.875 7.9725 0.875 8.6325 0.875 9.3125 C-1.10760426 10.99982277 -3.1082342 12.66616057 -5.125 14.3125 C-5.455 14.9725 -5.785 15.6325 -6.125 16.3125 C-10.875 15.4375 -10.875 15.4375 -13.125 14.3125 C-13.125 13.6525 -13.125 12.9925 -13.125 12.3125 C-13.681875 12.13074219 -14.23875 11.94898437 -14.8125 11.76171875 C-15.575625 11.51035156 -16.33875 11.25898437 -17.125 11 C-17.95128906 10.72929688 -18.77757812 10.45859375 -19.62890625 10.1796875 C-21.82728984 9.41592982 -23.92595596 8.54253425 -26.0625 7.625 C-34.4635542 4.48705683 -42.90978148 6.44942541 -51.125 9.3125 C-53.14581924 10.26973017 -55.15620677 11.25238057 -57.125 12.3125 C-57.785 12.3125 -58.445 12.3125 -59.125 12.3125 C-59.125 12.9725 -59.125 13.6325 -59.125 14.3125 C-60.28452732 15.47202732 -61.44721584 16.62855285 -62.625 17.76953125 C-70.8717496 26.25251586 -73.5820232 34.17885372 -73.55786133 45.86938477 C-73.36943548 52.24013974 -71.80160236 57.52931899 -69.125 63.3125 C-68.795 64.3025 -68.465 65.2925 -68.125 66.3125 C-67.465 66.3125 -66.805 66.3125 -66.125 66.3125 C-65.05890757 67.50262534 -64.04667003 68.74128608 -63.0625 70 C-57.60006408 76.40306285 -50.49639113 80.25133774 -42.125 81.3125 C-32.45892496 82.07275309 -22.98829292 81.36249046 -15.125 75.3125 C-14.465 75.3125 -13.805 75.3125 -13.125 75.3125 C-13.125 74.6525 -13.125 73.9925 -13.125 73.3125 C-10.125 71.3125 -10.125 71.3125 -8.125 71.5 C-5.8435083 72.426856 -4.6581196 73.39610049 -3.125 75.3125 C-3.125 75.9725 -3.125 76.6325 -3.125 77.3125 C-2.465 77.3125 -1.805 77.3125 -1.125 77.3125 C-1.125 77.9725 -1.125 78.6325 -1.125 79.3125 C-0.485625 79.60125 0.15375 79.89 0.8125 80.1875 C2.875 81.3125 2.875 81.3125 3.875 83.3125 C3.545 83.9725 3.215 84.6325 2.875 85.3125 C2.215 85.3125 1.555 85.3125 0.875 85.3125 C0.875 85.9725 0.875 86.6325 0.875 87.3125 C-11.59180589 96.93516767 -26.40635489 101.7665667 -42.125 100.3125 C-52.68387408 98.5456343 -61.16037006 95.34838682 -70.125 89.3125 C-71.61 88.3225 -71.61 88.3225 -73.125 87.3125 C-73.125 86.6525 -73.125 85.9925 -73.125 85.3125 C-73.785 85.3125 -74.445 85.3125 -75.125 85.3125 C-85.73494628 76.04629362 -91.17324193 62.05495797 -92.125 48.3125 C-93.06168749 32.41719711 -88.24366949 18.28182173 -77.875 6.3125 C-56.45804189 -16.95315319 -25.26417208 -17.03144798 0 0 Z " fill="#FEFEFE" transform="translate(220.125,82.6875)"/>
<path d="M0 0 C2.84611057 2.82409195 4.88423193 6.02629227 6.95410156 9.44091797 C7.37433594 10.09318359 7.79457031 10.74544922 8.22753906 11.41748047 C13.89211765 20.57343454 15.24512207 29.41381901 15.14160156 40.06591797 C15.13257813 41.17281982 15.12355469 42.27972168 15.11425781 43.42016602 C14.79826332 58.27739296 9.69069804 69.62219224 -0.67089844 80.44091797 C-3.29589844 82.69091797 -3.29589844 82.69091797 -5.29589844 82.69091797 C-5.29589844 83.35091797 -5.29589844 84.01091797 -5.29589844 84.69091797 C-7.5227782 85.98666668 -9.75223019 87.27759105 -11.98339844 88.56591797 C-12.9221582 89.113125 -12.9221582 89.113125 -13.87988281 89.67138672 C-26.60443637 96.99966364 -43.20337661 98.05385433 -57.48339844 94.56591797 C-62.8868418 92.75049801 -67.58976592 89.86296315 -72.29589844 86.69091797 C-73.00359375 86.23072266 -73.71128906 85.77052734 -74.44042969 85.29638672 C-79.15305693 82.11944249 -79.15305693 82.11944249 -80.29589844 78.69091797 C-79.80089844 77.70091797 -79.80089844 77.70091797 -79.29589844 76.69091797 C-78.63589844 76.69091797 -77.97589844 76.69091797 -77.29589844 76.69091797 C-77.29589844 76.03091797 -77.29589844 75.37091797 -77.29589844 74.69091797 C-76.63589844 74.69091797 -75.97589844 74.69091797 -75.29589844 74.69091797 C-75.29589844 74.03091797 -75.29589844 73.37091797 -75.29589844 72.69091797 C-74.63589844 72.69091797 -73.97589844 72.69091797 -73.29589844 72.69091797 C-73.29589844 72.03091797 -73.29589844 71.37091797 -73.29589844 70.69091797 C-72.63589844 70.69091797 -71.97589844 70.69091797 -71.29589844 70.69091797 C-70.96589844 69.70091797 -70.63589844 68.71091797 -70.29589844 67.69091797 C-66.80882691 68.00792447 -64.70623604 68.98631952 -61.98339844 71.06591797 C-53.88632924 77.18291784 -44.21659588 78.59822604 -34.29589844 77.69091797 C-31.31327131 76.86136302 -28.52822244 75.84987392 -25.67089844 74.66357422 C-23.54884924 73.79451131 -21.53076829 73.1823824 -19.29589844 72.69091797 C-19.29589844 72.03091797 -19.29589844 71.37091797 -19.29589844 70.69091797 C-18.42964844 70.15466797 -17.56339844 69.61841797 -16.67089844 69.06591797 C-9.69700613 64.59210026 -5.11896271 56.64890077 -3.29589844 48.69091797 C-1.86391221 36.44528463 -3.38097057 26.70306714 -10.85839844 16.69091797 C-12.94748148 14.08538009 -14.47867451 12.56906725 -17.29589844 10.69091797 C-17.29589844 10.03091797 -17.29589844 9.37091797 -17.29589844 8.69091797 C-18.16214844 8.42279297 -19.02839844 8.15466797 -19.92089844 7.87841797 C-23.29589844 6.69091797 -23.29589844 6.69091797 -26.29589844 5.12841797 C-33.89267984 1.48829355 -44.17331196 1.54875041 -52.24511719 3.85498047 C-57.3241999 5.92531133 -62.40873443 8.80375396 -66.29589844 12.69091797 C-70.5504851 12.55218145 -72.75186258 9.53274472 -75.54589844 6.62841797 C-76.43792969 5.70931641 -77.32996094 4.79021484 -78.24902344 3.84326172 C-78.92449219 3.13298828 -79.59996094 2.42271484 -80.29589844 1.69091797 C-79.80089844 0.20591797 -79.80089844 0.20591797 -79.29589844 -1.30908203 C-78.63589844 -1.30908203 -77.97589844 -1.30908203 -77.29589844 -1.30908203 C-77.29589844 -1.96908203 -77.29589844 -2.62908203 -77.29589844 -3.30908203 C-52.57726002 -21.4649023 -23.15303591 -20.2006776 0 0 Z " fill="#FEFEFE" transform="translate(118.2958984375,25.30908203125)"/>
<path d="M0 0 C2.3046875 1.55859375 2.3046875 1.55859375 4 3 C4 3.66 4 4.32 4 5 C4.66 5 5.32 5 6 5 C7.625 6.375 7.625 6.375 9 8 C9 8.66 9 9.32 9 10 C9.66 10 10.32 10 11 10 C12.28461175 12.11762603 13.55224061 14.24293246 14.8125 16.375 C15.16892578 16.95894531 15.52535156 17.54289062 15.89257812 18.14453125 C21.13791603 27.09529135 22.4929117 35.65953023 22.375 45.9375 C22.38660156 46.94490234 22.39820313 47.95230469 22.41015625 48.99023438 C22.37133512 59.05137697 20.37175885 67.68567821 14.9375 76.1875 C14.24527344 77.29480469 13.55304688 78.40210938 12.83984375 79.54296875 C11.92912109 80.75919922 11.92912109 80.75919922 11 82 C10.34 82 9.68 82 9 82 C9 82.66 9 83.32 9 84 C8.34 84 7.68 84 7 84 C6.76539062 84.5878125 6.53078125 85.175625 6.2890625 85.78125 C1.78046938 93.54149513 -10.59913562 98.67635666 -19 101 C-37.66297788 104.08795648 -53.44142775 100.78668859 -69.1875 90.375 C-72.69705964 87.41137186 -72.69705964 87.41137186 -73 84 C-70.6875 81.25 -70.6875 81.25 -68 79 C-67.34 79 -66.68 79 -66 79 C-65.7525 78.38125 -65.505 77.7625 -65.25 77.125 C-63.78043163 74.62673377 -62.71435596 73.93305986 -60 73 C-59.34 73.33 -58.68 73.66 -58 74 C-58 74.66 -58 75.32 -58 76 C-46.95801501 81.72054644 -35.54709461 86.00388713 -23.12890625 82.73828125 C-20.20208635 81.72329233 -17.51000238 80.41179412 -14.7890625 78.9375 C-13 78 -13 78 -10.125 77 C-7.4477917 75.74013727 -7.10658115 74.68741138 -6 72 C-4.5 69.75 -4.5 69.75 -3 68 C-2.34 68 -1.68 68 -1 68 C-0.731875 67.175 -0.46375 66.35 -0.1875 65.5 C1 62 1 62 2.625 58.625 C5.37646962 51.35325885 5.37646962 40.64674115 2.625 33.375 C2.08875 32.26125 1.5525 31.1475 1 30 C0.32264783 28.00359361 -0.34838935 26.00495586 -1 24 C-1.66 24 -2.32 24 -3 24 C-4.06609243 22.80987466 -5.07832997 21.57121392 -6.0625 20.3125 C-12.39656091 12.90531307 -21.4471013 8.90183865 -31.09375 7.75 C-42.29189997 7.39450318 -51.66739567 11.74257042 -60 19 C-62.62187494 17.95125002 -63.79371361 17.35068687 -65.25 14.875 C-65.4975 14.25625 -65.745 13.6375 -66 13 C-66.66 13 -67.32 13 -68 13 C-68 12.34 -68 11.68 -68 11 C-68.639375 10.731875 -69.27875 10.46375 -69.9375 10.1875 C-72 9 -72 9 -73 6 C-71.625 4.5 -71.625 4.5 -70 3 C-69.34 3 -68.68 3 -68 3 C-68 2.34 -68 1.68 -68 1 C-61.19687952 -4.37492589 -53.26209741 -6.81692548 -45 -9 C-44.36578125 -9.19335938 -43.7315625 -9.38671875 -43.078125 -9.5859375 C-27.87371503 -12.61538761 -12.81991942 -8.14825387 0 0 Z " fill="#FEFEFE" transform="translate(111,142)"/>
</svg>
